<?xml version="1.0" encoding="utf-8"?>
<!-- Generator: Adobe Illustrator 21.1.0, SVG Export Plug-In . SVG Version: 6.00 Build 0)  -->
<svg version="1.1" id="Layer_1" xmlns="http://www.w3.org/2000/svg" xmlns:xlink="http://www.w3.org/1999/xlink" x="0px" y="0px"
	 viewBox="0 0 68.7 68.1" style="enable-background:new 0 0 68.7 68.1;" xml:space="preserve">
<style type="text/css">
	.st0{fill:#FFFFFF;}
</style>
<path class="st0" d="M34.5,22.5C28.2,22.5,23,27.7,23,34s5.2,11.5,11.5,11.5S46,40.3,46,34S40.8,22.5,34.5,22.5z M34.5,43.5
	c-5.2,0-9.5-4.3-9.5-9.5s4.3-9.5,9.5-9.5S44,28.8,44,34S39.7,43.5,34.5,43.5z M34.5,14c-11,0-20,9-20,20s9,20,20,20s20-9,20-20
	S45.5,14,34.5,14z M34.5,52c-9.9,0-18-8.1-18-18s8.1-18,18-18s18,8.1,18,18S44.4,52,34.5,52z M67.9,29.1c-0.2-0.1-4.2-1.8-8.4-2.2
	c-0.5-1.9-1.3-3.8-2.3-5.6c2.7-3.3,4.3-7.3,4.4-7.5c0.1-0.4,0.1-0.8-0.2-1.1L55.7,7c-0.3-0.3-0.7-0.4-1.1-0.2
	c-0.2,0.1-4.2,1.7-7.5,4.4c-1.8-1-3.6-1.8-5.6-2.3c-0.4-4.2-2.1-8.2-2.2-8.4c0-0.3-0.4-0.5-0.8-0.5h-8c-0.4,0-0.8,0.2-0.9,0.6
	c-0.1,0.2-1.8,4.2-2.2,8.4c-1.9,0.5-3.8,1.3-5.6,2.3c-3.3-2.7-7.3-4.3-7.5-4.4c-0.4-0.2-0.8-0.1-1.1,0.2l-5.7,5.7
	c-0.3,0.3-0.4,0.7-0.2,1.1c0.1,0.2,1.7,4.2,4.4,7.5c-1,1.8-1.8,3.6-2.3,5.6c-4.2,0.4-8.2,2.1-8.4,2.2c-0.3,0-0.5,0.4-0.5,0.8v8
	c0,0.4,0.2,0.8,0.6,0.9c0.2,0.1,4.2,1.8,8.4,2.2c0.5,1.9,1.3,3.8,2.3,5.6C9.1,50,7.5,54,7.4,54.2c-0.1,0.4-0.1,0.8,0.2,1.1l5.7,5.7
	c0.3,0.3,0.7,0.4,1.1,0.2c0.2-0.1,4.2-1.7,7.5-4.4c1.8,1,3.6,1.8,5.6,2.3c0.4,4.2,2.1,8.2,2.2,8.4c0.2,0.4,0.5,0.6,0.9,0.6h8
	c0.4,0,0.8-0.2,0.9-0.6c0.1-0.2,1.8-4.2,2.2-8.4c1.9-0.5,3.8-1.3,5.6-2.3c3.3,2.7,7.3,4.3,7.5,4.4c0.4,0.2,0.8,0.1,1.1-0.2l5.7-5.7
	c0.3-0.3,0.4-0.7,0.2-1.1c-0.1-0.2-1.7-4.2-4.4-7.5c1-1.8,1.8-3.6,2.3-5.6c4.2-0.4,8.2-2.1,8.4-2.2c0.4-0.2,0.6-0.5,0.6-0.9v-8
	C68.5,29.6,68.3,29.2,67.9,29.1z M66.5,37.3c-1.3,0.5-4.6,1.6-7.8,1.8c-0.4,0-0.8,0.3-0.9,0.8c-0.6,2.2-1.4,4.4-2.6,6.3
	C55,46.6,55,47,55.3,47.4c2.1,2.4,3.7,5.5,4.2,6.8L54.8,59c-1.3-0.6-4.4-2.1-6.8-4.2c-0.3-0.3-0.8-0.3-1.2-0.1
	c-2,1.2-4.1,2.1-6.3,2.6c-0.4,0.1-0.7,0.5-0.8,0.9c-0.2,3.2-1.3,6.5-1.8,7.8h-6.6c-0.5-1.3-1.6-4.6-1.8-7.8c0-0.4-0.3-0.8-0.8-0.9
	c-2.2-0.6-4.4-1.4-6.3-2.6c-0.4-0.2-0.8-0.2-1.2,0.1c-2.4,2.1-5.5,3.7-6.8,4.2l-4.9-4.7c0.6-1.3,2.1-4.4,4.2-6.8
	c0.3-0.3,0.3-0.8,0.1-1.2c-1.2-2-2.1-4.1-2.6-6.3c-0.1-0.4-0.5-0.7-0.9-0.8c-3.2-0.2-6.5-1.3-7.8-1.8v-6.6c1.3-0.5,4.6-1.6,7.8-1.8
	c0.4,0,0.8-0.3,0.9-0.8c0.6-2.2,1.4-4.4,2.6-6.3c0.2-0.4,0.2-0.8-0.1-1.2c-2.1-2.4-3.7-5.5-4.2-6.8l4.7-4.7c1.3,0.6,4.4,2.1,6.8,4.2
	c0.3,0.3,0.8,0.3,1.2,0.1c2-1.2,4.1-2.1,6.3-2.6c0.4-0.1,0.7-0.5,0.8-0.9c0.2-3.2,1.3-6.5,1.8-7.8h6.6c0.5,1.3,1.6,4.6,1.8,7.8
	c0,0.4,0.3,0.8,0.8,0.9c2.2,0.6,4.4,1.4,6.3,2.6c0.4,0.2,0.8,0.2,1.2-0.1c2.4-2.1,5.5-3.7,6.8-4.2l4.7,4.7c-0.6,1.3-2.1,4.4-4.2,6.8
	c-0.3,0.3-0.3,0.8-0.1,1.2c1.2,2,2.1,4.1,2.6,6.3c0.1,0.4,0.5,0.7,0.9,0.8c3.2,0.2,6.5,1.3,7.8,1.8v6.5H66.5z"/>
</svg>
