<?xml version="1.0" encoding="utf-8"?>
<!-- Generator: Adobe Illustrator 21.1.0, SVG Export Plug-In . SVG Version: 6.00 Build 0)  -->
<svg version="1.1" id="Layer_1" xmlns="http://www.w3.org/2000/svg" xmlns:xlink="http://www.w3.org/1999/xlink" x="0px" y="0px"
	 viewBox="0 0 78.5 90" style="enable-background:new 0 0 78.5 90;" xml:space="preserve">
<style type="text/css">
	.st0{fill:#FFFFFF;}
</style>
<title>112all</title>
<path class="st0" d="M76.5,58c-1.6-0.6-3.3,0.2-3.8,1.8c0,0,0,0,0,0c-6.4,17.8-26,27-43.8,20.6s-27-26-20.6-43.8S34.2,9.6,52,16
	c4.7,1.7,9.1,4.4,12.6,8c0.2,0.2,0.3,0.4,0.5,0.6H48.4c-1.7,0-3,1.3-3,3c0,1.7,1.3,3,3,3l0,0l23-0.1c1.7,0,3-1.3,3-3l0.1-23
	c0-1.7-1.3-3-3-3l0,0c-1.7,0-3,1.3-3,3v14.7c-15.9-15.6-41.4-15.4-57,0.5s-15.4,41.4,0.5,57c15.7,15.7,41.2,15.7,57,0
	c4.2-4.2,7.4-9.2,9.4-14.8C78.8,60.3,78,58.6,76.5,58C76.5,58,76.5,58,76.5,58z"/>
</svg>
